%
M48
M72
T01C0.0079
T02C0.0236
T03C0.0276
T04C0.0320
T05C0.0354
T06C0.0400
T07C0.0440
T08C0.0470
T09C0.0748
T10C0.0800
T11C0.0910
T12C0.1250
T13C0.1280
T14C0.1300
%
T01
X21003Y25764
X21180Y26000
X21357Y25764
X21357Y26236
X21003Y26236
T02
X9930Y19750
X10200Y21888
X10950Y21888
X11930Y22500
X12542Y22496
X12930Y23000
X13430Y22500
X11930Y23250
X11430Y23750
X11930Y24750
X13141Y24612
X10180Y24250
X9680Y24250
X9180Y25250
X8180Y24750
X7540Y23750
X8680Y23250
X8930Y22750
X8180Y22250
X6930Y22250
X6180Y23000
X5928Y23906
X5180Y24500
X5180Y25750
X5930Y26750
X5430Y27500
X7180Y27250
X7930Y25750
X8680Y29500
X9180Y29750
X8430Y31750
X8430Y32750
X7326Y32949
X8068Y34000
X8430Y34750
X8930Y34250
X9430Y34000
X10930Y34250
X11680Y34250
X12180Y36250
X11680Y36500
X12009Y37102
X12430Y37500
X11263Y37876
X11263Y37102
X11263Y38717
X11989Y39150
X12680Y39000
X14180Y38250
X14688Y37850
X15180Y37000
X16180Y36750
X15680Y35750
X16180Y35250
X16180Y34250
X14097Y35252
X13930Y35750
X13930Y36250
X15180Y38750
X14680Y39000
X16430Y39250
X15680Y40750
X13680Y42250
X11263Y40154
X9430Y39250
X8930Y42500
X17430Y36750
X18180Y38500
X18180Y40250
X19930Y38250
X19924Y36394
X19430Y35250
X22180Y34500
X23180Y35750
X22930Y38000
X22930Y40250
X21680Y40250
X27430Y36250
X27930Y35000
X27430Y34500
X29180Y33500
X30680Y33000
X31115Y34435
X31930Y34750
X31180Y35500
X32430Y36500
X32430Y37500
X32582Y39346
X32582Y40252
X31680Y40000
X30180Y40000
X27930Y38750
X33180Y34750
X33930Y35500
X32208Y33421
X37430Y36000
X39180Y36000
X40180Y33000
X37930Y32000
X39930Y30000
X43172Y32024
X43180Y34750
X39930Y26500
X40430Y23000
X36430Y23000
X25430Y23000
X25430Y22000
X20745Y21770
X20180Y23250
X17680Y25750
X17306Y26276
X16430Y27000
X17180Y27500
X17680Y28000
X17180Y28508
X15967Y28126
X15930Y29000
X14930Y28500
X14180Y28250
X14930Y30250
X14180Y31000
X13680Y31500
X14680Y32000
X15180Y31500
X16180Y31579
X17430Y31250
X19180Y30500
X19930Y30500
X19930Y31250
X19430Y32000
X20430Y32000
X21180Y32000
X22070Y31276
X21180Y31000
X23180Y32250
X23430Y28750
X23930Y27750
X20430Y28750
X19180Y27500
X20180Y27000
X16430Y25132
X11430Y29500
X12180Y30000
X13180Y30250
X14180Y32750
X5680Y31750
X5430Y30250
X33930Y40250
T03
X33324Y42000
X32536Y42000
X32536Y20000
X33324Y20000
T04
X12430Y28250
X12430Y29250
X9430Y29250
X9430Y28250
T05
X11103Y19839
X12836Y19839
X20347Y19770
X23143Y19770
X36430Y24250
X37430Y24250
X38430Y24250
X39430Y24250
X38930Y25250
X37930Y25250
X36930Y25250
X39930Y25250
X39430Y36750
X38430Y36750
X37430Y36750
X36430Y36750
X36930Y37750
X37930Y37750
X38930Y37750
X39930Y37750
X23078Y42250
X20282Y42250
X12796Y42000
X11064Y42000
T06
X7680Y35660
X7680Y34580
X6680Y34040
X6680Y35120
X7680Y33500
X7680Y32420
X7680Y31340
X6680Y31880
X6680Y32960
T07
X23930Y30500
X24930Y30500
X25930Y30500
X26930Y30500
X27930Y30500
X28930Y30500
X29930Y30500
X30930Y30500
X31930Y30500
X32930Y30500
X33930Y30500
X33930Y26500
X32930Y26500
X31930Y26500
X30930Y26500
X29930Y26500
X28930Y26500
X27930Y26500
X26930Y26500
X25930Y26500
X24930Y26500
X23930Y26500
X38180Y34750
X39180Y34750
X40180Y34750
X43180Y38725
X44180Y38725
X45180Y38725
X45155Y23175
X44155Y23175
X43155Y23175
T08
X44422Y26031
X44422Y28000
X44422Y29969
X44422Y32031
X44422Y34000
X44422Y35969
T09
X41380Y36801
X41380Y42348
X34980Y42348
X34980Y36801
X34980Y25199
X34980Y19652
X41380Y19652
X41380Y25199
T10
X16930Y40450
X16930Y42250
T11
X14516Y22220
X19686Y22220
T12
X24450Y20680
X8830Y20680
X8830Y41320
X24450Y41320
X42580Y41320
X42580Y20680
T13
X40430Y21750
X35930Y21750
X35930Y40250
X40430Y40250
T14
X7180Y38430
X7180Y28570
M30
