G75*
G70*
%OFA0B0*%
%FSLAX24Y24*%
%IPPOS*%
%LPD*%
%AMOC8*
5,1,8,0,0,1.08239X$1,22.5*
%
%ADD10C,0.0000*%
%ADD11C,0.0004*%
D10*
X010926Y019839D02*
X010928Y019865D01*
X010934Y019891D01*
X010944Y019916D01*
X010957Y019939D01*
X010973Y019959D01*
X010993Y019977D01*
X011015Y019992D01*
X011038Y020004D01*
X011064Y020012D01*
X011090Y020016D01*
X011116Y020016D01*
X011142Y020012D01*
X011168Y020004D01*
X011192Y019992D01*
X011213Y019977D01*
X011233Y019959D01*
X011249Y019939D01*
X011262Y019916D01*
X011272Y019891D01*
X011278Y019865D01*
X011280Y019839D01*
X011278Y019813D01*
X011272Y019787D01*
X011262Y019762D01*
X011249Y019739D01*
X011233Y019719D01*
X011213Y019701D01*
X011191Y019686D01*
X011168Y019674D01*
X011142Y019666D01*
X011116Y019662D01*
X011090Y019662D01*
X011064Y019666D01*
X011038Y019674D01*
X011014Y019686D01*
X010993Y019701D01*
X010973Y019719D01*
X010957Y019739D01*
X010944Y019762D01*
X010934Y019787D01*
X010928Y019813D01*
X010926Y019839D01*
X012659Y019839D02*
X012661Y019865D01*
X012667Y019891D01*
X012677Y019916D01*
X012690Y019939D01*
X012706Y019959D01*
X012726Y019977D01*
X012748Y019992D01*
X012771Y020004D01*
X012797Y020012D01*
X012823Y020016D01*
X012849Y020016D01*
X012875Y020012D01*
X012901Y020004D01*
X012925Y019992D01*
X012946Y019977D01*
X012966Y019959D01*
X012982Y019939D01*
X012995Y019916D01*
X013005Y019891D01*
X013011Y019865D01*
X013013Y019839D01*
X013011Y019813D01*
X013005Y019787D01*
X012995Y019762D01*
X012982Y019739D01*
X012966Y019719D01*
X012946Y019701D01*
X012924Y019686D01*
X012901Y019674D01*
X012875Y019666D01*
X012849Y019662D01*
X012823Y019662D01*
X012797Y019666D01*
X012771Y019674D01*
X012747Y019686D01*
X012726Y019701D01*
X012706Y019719D01*
X012690Y019739D01*
X012677Y019762D01*
X012667Y019787D01*
X012661Y019813D01*
X012659Y019839D01*
X020170Y019770D02*
X020172Y019796D01*
X020178Y019822D01*
X020188Y019847D01*
X020201Y019870D01*
X020217Y019890D01*
X020237Y019908D01*
X020259Y019923D01*
X020282Y019935D01*
X020308Y019943D01*
X020334Y019947D01*
X020360Y019947D01*
X020386Y019943D01*
X020412Y019935D01*
X020436Y019923D01*
X020457Y019908D01*
X020477Y019890D01*
X020493Y019870D01*
X020506Y019847D01*
X020516Y019822D01*
X020522Y019796D01*
X020524Y019770D01*
X020522Y019744D01*
X020516Y019718D01*
X020506Y019693D01*
X020493Y019670D01*
X020477Y019650D01*
X020457Y019632D01*
X020435Y019617D01*
X020412Y019605D01*
X020386Y019597D01*
X020360Y019593D01*
X020334Y019593D01*
X020308Y019597D01*
X020282Y019605D01*
X020258Y019617D01*
X020237Y019632D01*
X020217Y019650D01*
X020201Y019670D01*
X020188Y019693D01*
X020178Y019718D01*
X020172Y019744D01*
X020170Y019770D01*
X022966Y019770D02*
X022968Y019796D01*
X022974Y019822D01*
X022984Y019847D01*
X022997Y019870D01*
X023013Y019890D01*
X023033Y019908D01*
X023055Y019923D01*
X023078Y019935D01*
X023104Y019943D01*
X023130Y019947D01*
X023156Y019947D01*
X023182Y019943D01*
X023208Y019935D01*
X023232Y019923D01*
X023253Y019908D01*
X023273Y019890D01*
X023289Y019870D01*
X023302Y019847D01*
X023312Y019822D01*
X023318Y019796D01*
X023320Y019770D01*
X023318Y019744D01*
X023312Y019718D01*
X023302Y019693D01*
X023289Y019670D01*
X023273Y019650D01*
X023253Y019632D01*
X023231Y019617D01*
X023208Y019605D01*
X023182Y019597D01*
X023156Y019593D01*
X023130Y019593D01*
X023104Y019597D01*
X023078Y019605D01*
X023054Y019617D01*
X023033Y019632D01*
X023013Y019650D01*
X022997Y019670D01*
X022984Y019693D01*
X022974Y019718D01*
X022968Y019744D01*
X022966Y019770D01*
X035290Y021750D02*
X035292Y021800D01*
X035298Y021850D01*
X035308Y021899D01*
X035321Y021948D01*
X035339Y021995D01*
X035360Y022041D01*
X035384Y022084D01*
X035412Y022126D01*
X035443Y022166D01*
X035477Y022203D01*
X035514Y022237D01*
X035554Y022268D01*
X035596Y022296D01*
X035639Y022320D01*
X035685Y022341D01*
X035732Y022359D01*
X035781Y022372D01*
X035830Y022382D01*
X035880Y022388D01*
X035930Y022390D01*
X035980Y022388D01*
X036030Y022382D01*
X036079Y022372D01*
X036128Y022359D01*
X036175Y022341D01*
X036221Y022320D01*
X036264Y022296D01*
X036306Y022268D01*
X036346Y022237D01*
X036383Y022203D01*
X036417Y022166D01*
X036448Y022126D01*
X036476Y022084D01*
X036500Y022041D01*
X036521Y021995D01*
X036539Y021948D01*
X036552Y021899D01*
X036562Y021850D01*
X036568Y021800D01*
X036570Y021750D01*
X036568Y021700D01*
X036562Y021650D01*
X036552Y021601D01*
X036539Y021552D01*
X036521Y021505D01*
X036500Y021459D01*
X036476Y021416D01*
X036448Y021374D01*
X036417Y021334D01*
X036383Y021297D01*
X036346Y021263D01*
X036306Y021232D01*
X036264Y021204D01*
X036221Y021180D01*
X036175Y021159D01*
X036128Y021141D01*
X036079Y021128D01*
X036030Y021118D01*
X035980Y021112D01*
X035930Y021110D01*
X035880Y021112D01*
X035830Y021118D01*
X035781Y021128D01*
X035732Y021141D01*
X035685Y021159D01*
X035639Y021180D01*
X035596Y021204D01*
X035554Y021232D01*
X035514Y021263D01*
X035477Y021297D01*
X035443Y021334D01*
X035412Y021374D01*
X035384Y021416D01*
X035360Y021459D01*
X035339Y021505D01*
X035321Y021552D01*
X035308Y021601D01*
X035298Y021650D01*
X035292Y021700D01*
X035290Y021750D01*
X039790Y021750D02*
X039792Y021800D01*
X039798Y021850D01*
X039808Y021899D01*
X039821Y021948D01*
X039839Y021995D01*
X039860Y022041D01*
X039884Y022084D01*
X039912Y022126D01*
X039943Y022166D01*
X039977Y022203D01*
X040014Y022237D01*
X040054Y022268D01*
X040096Y022296D01*
X040139Y022320D01*
X040185Y022341D01*
X040232Y022359D01*
X040281Y022372D01*
X040330Y022382D01*
X040380Y022388D01*
X040430Y022390D01*
X040480Y022388D01*
X040530Y022382D01*
X040579Y022372D01*
X040628Y022359D01*
X040675Y022341D01*
X040721Y022320D01*
X040764Y022296D01*
X040806Y022268D01*
X040846Y022237D01*
X040883Y022203D01*
X040917Y022166D01*
X040948Y022126D01*
X040976Y022084D01*
X041000Y022041D01*
X041021Y021995D01*
X041039Y021948D01*
X041052Y021899D01*
X041062Y021850D01*
X041068Y021800D01*
X041070Y021750D01*
X041068Y021700D01*
X041062Y021650D01*
X041052Y021601D01*
X041039Y021552D01*
X041021Y021505D01*
X041000Y021459D01*
X040976Y021416D01*
X040948Y021374D01*
X040917Y021334D01*
X040883Y021297D01*
X040846Y021263D01*
X040806Y021232D01*
X040764Y021204D01*
X040721Y021180D01*
X040675Y021159D01*
X040628Y021141D01*
X040579Y021128D01*
X040530Y021118D01*
X040480Y021112D01*
X040430Y021110D01*
X040380Y021112D01*
X040330Y021118D01*
X040281Y021128D01*
X040232Y021141D01*
X040185Y021159D01*
X040139Y021180D01*
X040096Y021204D01*
X040054Y021232D01*
X040014Y021263D01*
X039977Y021297D01*
X039943Y021334D01*
X039912Y021374D01*
X039884Y021416D01*
X039860Y021459D01*
X039839Y021505D01*
X039821Y021552D01*
X039808Y021601D01*
X039798Y021650D01*
X039792Y021700D01*
X039790Y021750D01*
X039790Y040250D02*
X039792Y040300D01*
X039798Y040350D01*
X039808Y040399D01*
X039821Y040448D01*
X039839Y040495D01*
X039860Y040541D01*
X039884Y040584D01*
X039912Y040626D01*
X039943Y040666D01*
X039977Y040703D01*
X040014Y040737D01*
X040054Y040768D01*
X040096Y040796D01*
X040139Y040820D01*
X040185Y040841D01*
X040232Y040859D01*
X040281Y040872D01*
X040330Y040882D01*
X040380Y040888D01*
X040430Y040890D01*
X040480Y040888D01*
X040530Y040882D01*
X040579Y040872D01*
X040628Y040859D01*
X040675Y040841D01*
X040721Y040820D01*
X040764Y040796D01*
X040806Y040768D01*
X040846Y040737D01*
X040883Y040703D01*
X040917Y040666D01*
X040948Y040626D01*
X040976Y040584D01*
X041000Y040541D01*
X041021Y040495D01*
X041039Y040448D01*
X041052Y040399D01*
X041062Y040350D01*
X041068Y040300D01*
X041070Y040250D01*
X041068Y040200D01*
X041062Y040150D01*
X041052Y040101D01*
X041039Y040052D01*
X041021Y040005D01*
X041000Y039959D01*
X040976Y039916D01*
X040948Y039874D01*
X040917Y039834D01*
X040883Y039797D01*
X040846Y039763D01*
X040806Y039732D01*
X040764Y039704D01*
X040721Y039680D01*
X040675Y039659D01*
X040628Y039641D01*
X040579Y039628D01*
X040530Y039618D01*
X040480Y039612D01*
X040430Y039610D01*
X040380Y039612D01*
X040330Y039618D01*
X040281Y039628D01*
X040232Y039641D01*
X040185Y039659D01*
X040139Y039680D01*
X040096Y039704D01*
X040054Y039732D01*
X040014Y039763D01*
X039977Y039797D01*
X039943Y039834D01*
X039912Y039874D01*
X039884Y039916D01*
X039860Y039959D01*
X039839Y040005D01*
X039821Y040052D01*
X039808Y040101D01*
X039798Y040150D01*
X039792Y040200D01*
X039790Y040250D01*
X035290Y040250D02*
X035292Y040300D01*
X035298Y040350D01*
X035308Y040399D01*
X035321Y040448D01*
X035339Y040495D01*
X035360Y040541D01*
X035384Y040584D01*
X035412Y040626D01*
X035443Y040666D01*
X035477Y040703D01*
X035514Y040737D01*
X035554Y040768D01*
X035596Y040796D01*
X035639Y040820D01*
X035685Y040841D01*
X035732Y040859D01*
X035781Y040872D01*
X035830Y040882D01*
X035880Y040888D01*
X035930Y040890D01*
X035980Y040888D01*
X036030Y040882D01*
X036079Y040872D01*
X036128Y040859D01*
X036175Y040841D01*
X036221Y040820D01*
X036264Y040796D01*
X036306Y040768D01*
X036346Y040737D01*
X036383Y040703D01*
X036417Y040666D01*
X036448Y040626D01*
X036476Y040584D01*
X036500Y040541D01*
X036521Y040495D01*
X036539Y040448D01*
X036552Y040399D01*
X036562Y040350D01*
X036568Y040300D01*
X036570Y040250D01*
X036568Y040200D01*
X036562Y040150D01*
X036552Y040101D01*
X036539Y040052D01*
X036521Y040005D01*
X036500Y039959D01*
X036476Y039916D01*
X036448Y039874D01*
X036417Y039834D01*
X036383Y039797D01*
X036346Y039763D01*
X036306Y039732D01*
X036264Y039704D01*
X036221Y039680D01*
X036175Y039659D01*
X036128Y039641D01*
X036079Y039628D01*
X036030Y039618D01*
X035980Y039612D01*
X035930Y039610D01*
X035880Y039612D01*
X035830Y039618D01*
X035781Y039628D01*
X035732Y039641D01*
X035685Y039659D01*
X035639Y039680D01*
X035596Y039704D01*
X035554Y039732D01*
X035514Y039763D01*
X035477Y039797D01*
X035443Y039834D01*
X035412Y039874D01*
X035384Y039916D01*
X035360Y039959D01*
X035339Y040005D01*
X035321Y040052D01*
X035308Y040101D01*
X035298Y040150D01*
X035292Y040200D01*
X035290Y040250D01*
X022901Y042250D02*
X022903Y042276D01*
X022909Y042302D01*
X022919Y042327D01*
X022932Y042350D01*
X022948Y042370D01*
X022968Y042388D01*
X022990Y042403D01*
X023013Y042415D01*
X023039Y042423D01*
X023065Y042427D01*
X023091Y042427D01*
X023117Y042423D01*
X023143Y042415D01*
X023167Y042403D01*
X023188Y042388D01*
X023208Y042370D01*
X023224Y042350D01*
X023237Y042327D01*
X023247Y042302D01*
X023253Y042276D01*
X023255Y042250D01*
X023253Y042224D01*
X023247Y042198D01*
X023237Y042173D01*
X023224Y042150D01*
X023208Y042130D01*
X023188Y042112D01*
X023166Y042097D01*
X023143Y042085D01*
X023117Y042077D01*
X023091Y042073D01*
X023065Y042073D01*
X023039Y042077D01*
X023013Y042085D01*
X022989Y042097D01*
X022968Y042112D01*
X022948Y042130D01*
X022932Y042150D01*
X022919Y042173D01*
X022909Y042198D01*
X022903Y042224D01*
X022901Y042250D01*
X020105Y042250D02*
X020107Y042276D01*
X020113Y042302D01*
X020123Y042327D01*
X020136Y042350D01*
X020152Y042370D01*
X020172Y042388D01*
X020194Y042403D01*
X020217Y042415D01*
X020243Y042423D01*
X020269Y042427D01*
X020295Y042427D01*
X020321Y042423D01*
X020347Y042415D01*
X020371Y042403D01*
X020392Y042388D01*
X020412Y042370D01*
X020428Y042350D01*
X020441Y042327D01*
X020451Y042302D01*
X020457Y042276D01*
X020459Y042250D01*
X020457Y042224D01*
X020451Y042198D01*
X020441Y042173D01*
X020428Y042150D01*
X020412Y042130D01*
X020392Y042112D01*
X020370Y042097D01*
X020347Y042085D01*
X020321Y042077D01*
X020295Y042073D01*
X020269Y042073D01*
X020243Y042077D01*
X020217Y042085D01*
X020193Y042097D01*
X020172Y042112D01*
X020152Y042130D01*
X020136Y042150D01*
X020123Y042173D01*
X020113Y042198D01*
X020107Y042224D01*
X020105Y042250D01*
X016530Y042250D02*
X016532Y042290D01*
X016538Y042329D01*
X016548Y042368D01*
X016561Y042405D01*
X016579Y042441D01*
X016600Y042475D01*
X016624Y042507D01*
X016651Y042536D01*
X016681Y042563D01*
X016713Y042586D01*
X016748Y042606D01*
X016784Y042622D01*
X016822Y042635D01*
X016861Y042644D01*
X016900Y042649D01*
X016940Y042650D01*
X016980Y042647D01*
X017019Y042640D01*
X017057Y042629D01*
X017095Y042615D01*
X017130Y042596D01*
X017163Y042575D01*
X017195Y042550D01*
X017223Y042522D01*
X017249Y042492D01*
X017271Y042459D01*
X017290Y042424D01*
X017306Y042387D01*
X017318Y042349D01*
X017326Y042310D01*
X017330Y042270D01*
X017330Y042230D01*
X017326Y042190D01*
X017318Y042151D01*
X017306Y042113D01*
X017290Y042076D01*
X017271Y042041D01*
X017249Y042008D01*
X017223Y041978D01*
X017195Y041950D01*
X017163Y041925D01*
X017130Y041904D01*
X017095Y041885D01*
X017057Y041871D01*
X017019Y041860D01*
X016980Y041853D01*
X016940Y041850D01*
X016900Y041851D01*
X016861Y041856D01*
X016822Y041865D01*
X016784Y041878D01*
X016748Y041894D01*
X016713Y041914D01*
X016681Y041937D01*
X016651Y041964D01*
X016624Y041993D01*
X016600Y042025D01*
X016579Y042059D01*
X016561Y042095D01*
X016548Y042132D01*
X016538Y042171D01*
X016532Y042210D01*
X016530Y042250D01*
X016530Y040450D02*
X016532Y040490D01*
X016538Y040529D01*
X016548Y040568D01*
X016561Y040605D01*
X016579Y040641D01*
X016600Y040675D01*
X016624Y040707D01*
X016651Y040736D01*
X016681Y040763D01*
X016713Y040786D01*
X016748Y040806D01*
X016784Y040822D01*
X016822Y040835D01*
X016861Y040844D01*
X016900Y040849D01*
X016940Y040850D01*
X016980Y040847D01*
X017019Y040840D01*
X017057Y040829D01*
X017095Y040815D01*
X017130Y040796D01*
X017163Y040775D01*
X017195Y040750D01*
X017223Y040722D01*
X017249Y040692D01*
X017271Y040659D01*
X017290Y040624D01*
X017306Y040587D01*
X017318Y040549D01*
X017326Y040510D01*
X017330Y040470D01*
X017330Y040430D01*
X017326Y040390D01*
X017318Y040351D01*
X017306Y040313D01*
X017290Y040276D01*
X017271Y040241D01*
X017249Y040208D01*
X017223Y040178D01*
X017195Y040150D01*
X017163Y040125D01*
X017130Y040104D01*
X017095Y040085D01*
X017057Y040071D01*
X017019Y040060D01*
X016980Y040053D01*
X016940Y040050D01*
X016900Y040051D01*
X016861Y040056D01*
X016822Y040065D01*
X016784Y040078D01*
X016748Y040094D01*
X016713Y040114D01*
X016681Y040137D01*
X016651Y040164D01*
X016624Y040193D01*
X016600Y040225D01*
X016579Y040259D01*
X016561Y040295D01*
X016548Y040332D01*
X016538Y040371D01*
X016532Y040410D01*
X016530Y040450D01*
X012619Y042000D02*
X012621Y042026D01*
X012627Y042052D01*
X012637Y042077D01*
X012650Y042100D01*
X012666Y042120D01*
X012686Y042138D01*
X012708Y042153D01*
X012731Y042165D01*
X012757Y042173D01*
X012783Y042177D01*
X012809Y042177D01*
X012835Y042173D01*
X012861Y042165D01*
X012885Y042153D01*
X012906Y042138D01*
X012926Y042120D01*
X012942Y042100D01*
X012955Y042077D01*
X012965Y042052D01*
X012971Y042026D01*
X012973Y042000D01*
X012971Y041974D01*
X012965Y041948D01*
X012955Y041923D01*
X012942Y041900D01*
X012926Y041880D01*
X012906Y041862D01*
X012884Y041847D01*
X012861Y041835D01*
X012835Y041827D01*
X012809Y041823D01*
X012783Y041823D01*
X012757Y041827D01*
X012731Y041835D01*
X012707Y041847D01*
X012686Y041862D01*
X012666Y041880D01*
X012650Y041900D01*
X012637Y041923D01*
X012627Y041948D01*
X012621Y041974D01*
X012619Y042000D01*
X010887Y042000D02*
X010889Y042026D01*
X010895Y042052D01*
X010905Y042077D01*
X010918Y042100D01*
X010934Y042120D01*
X010954Y042138D01*
X010976Y042153D01*
X010999Y042165D01*
X011025Y042173D01*
X011051Y042177D01*
X011077Y042177D01*
X011103Y042173D01*
X011129Y042165D01*
X011153Y042153D01*
X011174Y042138D01*
X011194Y042120D01*
X011210Y042100D01*
X011223Y042077D01*
X011233Y042052D01*
X011239Y042026D01*
X011241Y042000D01*
X011239Y041974D01*
X011233Y041948D01*
X011223Y041923D01*
X011210Y041900D01*
X011194Y041880D01*
X011174Y041862D01*
X011152Y041847D01*
X011129Y041835D01*
X011103Y041827D01*
X011077Y041823D01*
X011051Y041823D01*
X011025Y041827D01*
X010999Y041835D01*
X010975Y041847D01*
X010954Y041862D01*
X010934Y041880D01*
X010918Y041900D01*
X010905Y041923D01*
X010895Y041948D01*
X010889Y041974D01*
X010887Y042000D01*
D11*
X034355Y043470D02*
X042005Y043470D01*
X042005Y018530D02*
X034355Y018530D01*
M02*
