G75*
G70*
%OFA0B0*%
%FSLAX24Y24*%
%IPPOS*%
%LPD*%
%AMOC8*
5,1,8,0,0,1.08239X$1,22.5*
%
%ADD10R,0.0985X0.1142*%
%ADD11C,0.0000*%
%ADD12C,0.0840*%
%ADD13R,0.0540X0.0619*%
%ADD14R,0.0591X0.0670*%
%ADD15R,0.0670X0.0591*%
%ADD16R,0.0512X0.0355*%
%ADD17R,0.0355X0.0512*%
%ADD18R,0.0749X0.0434*%
%ADD19R,0.0237X0.1024*%
%ADD20R,0.0827X0.1024*%
%ADD21C,0.0394*%
%ADD22R,0.0434X0.0473*%
%ADD23R,0.0434X0.0749*%
%ADD24C,0.0610*%
%ADD25R,0.0619X0.0540*%
%ADD26R,0.0414X0.0276*%
%ADD27C,0.1350*%
%ADD28R,0.0394X0.1221*%
%ADD29R,0.0473X0.0434*%
%ADD30R,0.0512X0.1024*%
%ADD31OC8,0.0640*%
%ADD32C,0.2040*%
%ADD33R,0.0394X0.0316*%
%ADD34R,0.0316X0.0394*%
%ADD35R,0.0296X0.0237*%
%ADD36R,0.0670X0.0197*%
%ADD37R,0.0658X0.0784*%
%ADD38C,0.0319*%
%ADD39R,0.0591X0.0512*%
%ADD40R,0.0316X0.0316*%
%ADD41R,0.0276X0.0414*%
%ADD42R,0.0375X0.0709*%
%ADD43R,0.0590X0.0177*%
%ADD44R,0.0552X0.0650*%
%ADD45C,0.0780*%
%ADD46R,0.0355X0.0355*%
%ADD47R,0.0910X0.0280*%
%ADD48R,0.0512X0.0591*%
%ADD49C,0.0745*%
%ADD50R,0.0512X0.0257*%
%ADD51C,0.0004*%
%ADD52C,0.0594*%
%ADD53C,0.1162*%
%ADD54C,0.1320*%
%ADD55R,0.0490X0.0340*%
%ADD56R,0.0540X0.0292*%
%ADD57R,0.0788X0.0473*%
%ADD58C,0.0560*%
%ADD59R,0.0394X0.0355*%
%ADD60C,0.1690*%
D10*
X014686Y039848D03*
X014686Y042250D03*
X019174Y042250D03*
X019174Y039848D03*
D11*
X020105Y042250D02*
X020107Y042276D01*
X020113Y042302D01*
X020123Y042327D01*
X020136Y042350D01*
X020152Y042370D01*
X020172Y042388D01*
X020194Y042403D01*
X020217Y042415D01*
X020243Y042423D01*
X020269Y042427D01*
X020295Y042427D01*
X020321Y042423D01*
X020347Y042415D01*
X020371Y042403D01*
X020392Y042388D01*
X020412Y042370D01*
X020428Y042350D01*
X020441Y042327D01*
X020451Y042302D01*
X020457Y042276D01*
X020459Y042250D01*
X020457Y042224D01*
X020451Y042198D01*
X020441Y042173D01*
X020428Y042150D01*
X020412Y042130D01*
X020392Y042112D01*
X020370Y042097D01*
X020347Y042085D01*
X020321Y042077D01*
X020295Y042073D01*
X020269Y042073D01*
X020243Y042077D01*
X020217Y042085D01*
X020193Y042097D01*
X020172Y042112D01*
X020152Y042130D01*
X020136Y042150D01*
X020123Y042173D01*
X020113Y042198D01*
X020107Y042224D01*
X020105Y042250D01*
X022901Y042250D02*
X022903Y042276D01*
X022909Y042302D01*
X022919Y042327D01*
X022932Y042350D01*
X022948Y042370D01*
X022968Y042388D01*
X022990Y042403D01*
X023013Y042415D01*
X023039Y042423D01*
X023065Y042427D01*
X023091Y042427D01*
X023117Y042423D01*
X023143Y042415D01*
X023167Y042403D01*
X023188Y042388D01*
X023208Y042370D01*
X023224Y042350D01*
X023237Y042327D01*
X023247Y042302D01*
X023253Y042276D01*
X023255Y042250D01*
X023253Y042224D01*
X023247Y042198D01*
X023237Y042173D01*
X023224Y042150D01*
X023208Y042130D01*
X023188Y042112D01*
X023166Y042097D01*
X023143Y042085D01*
X023117Y042077D01*
X023091Y042073D01*
X023065Y042073D01*
X023039Y042077D01*
X023013Y042085D01*
X022989Y042097D01*
X022968Y042112D01*
X022948Y042130D01*
X022932Y042150D01*
X022919Y042173D01*
X022909Y042198D01*
X022903Y042224D01*
X022901Y042250D01*
X016530Y042250D02*
X016532Y042290D01*
X016538Y042329D01*
X016548Y042368D01*
X016561Y042405D01*
X016579Y042441D01*
X016600Y042475D01*
X016624Y042507D01*
X016651Y042536D01*
X016681Y042563D01*
X016713Y042586D01*
X016748Y042606D01*
X016784Y042622D01*
X016822Y042635D01*
X016861Y042644D01*
X016900Y042649D01*
X016940Y042650D01*
X016980Y042647D01*
X017019Y042640D01*
X017057Y042629D01*
X017095Y042615D01*
X017130Y042596D01*
X017163Y042575D01*
X017195Y042550D01*
X017223Y042522D01*
X017249Y042492D01*
X017271Y042459D01*
X017290Y042424D01*
X017306Y042387D01*
X017318Y042349D01*
X017326Y042310D01*
X017330Y042270D01*
X017330Y042230D01*
X017326Y042190D01*
X017318Y042151D01*
X017306Y042113D01*
X017290Y042076D01*
X017271Y042041D01*
X017249Y042008D01*
X017223Y041978D01*
X017195Y041950D01*
X017163Y041925D01*
X017130Y041904D01*
X017095Y041885D01*
X017057Y041871D01*
X017019Y041860D01*
X016980Y041853D01*
X016940Y041850D01*
X016900Y041851D01*
X016861Y041856D01*
X016822Y041865D01*
X016784Y041878D01*
X016748Y041894D01*
X016713Y041914D01*
X016681Y041937D01*
X016651Y041964D01*
X016624Y041993D01*
X016600Y042025D01*
X016579Y042059D01*
X016561Y042095D01*
X016548Y042132D01*
X016538Y042171D01*
X016532Y042210D01*
X016530Y042250D01*
X016530Y040450D02*
X016532Y040490D01*
X016538Y040529D01*
X016548Y040568D01*
X016561Y040605D01*
X016579Y040641D01*
X016600Y040675D01*
X016624Y040707D01*
X016651Y040736D01*
X016681Y040763D01*
X016713Y040786D01*
X016748Y040806D01*
X016784Y040822D01*
X016822Y040835D01*
X016861Y040844D01*
X016900Y040849D01*
X016940Y040850D01*
X016980Y040847D01*
X017019Y040840D01*
X017057Y040829D01*
X017095Y040815D01*
X017130Y040796D01*
X017163Y040775D01*
X017195Y040750D01*
X017223Y040722D01*
X017249Y040692D01*
X017271Y040659D01*
X017290Y040624D01*
X017306Y040587D01*
X017318Y040549D01*
X017326Y040510D01*
X017330Y040470D01*
X017330Y040430D01*
X017326Y040390D01*
X017318Y040351D01*
X017306Y040313D01*
X017290Y040276D01*
X017271Y040241D01*
X017249Y040208D01*
X017223Y040178D01*
X017195Y040150D01*
X017163Y040125D01*
X017130Y040104D01*
X017095Y040085D01*
X017057Y040071D01*
X017019Y040060D01*
X016980Y040053D01*
X016940Y040050D01*
X016900Y040051D01*
X016861Y040056D01*
X016822Y040065D01*
X016784Y040078D01*
X016748Y040094D01*
X016713Y040114D01*
X016681Y040137D01*
X016651Y040164D01*
X016624Y040193D01*
X016600Y040225D01*
X016579Y040259D01*
X016561Y040295D01*
X016548Y040332D01*
X016538Y040371D01*
X016532Y040410D01*
X016530Y040450D01*
X012619Y042000D02*
X012621Y042026D01*
X012627Y042052D01*
X012637Y042077D01*
X012650Y042100D01*
X012666Y042120D01*
X012686Y042138D01*
X012708Y042153D01*
X012731Y042165D01*
X012757Y042173D01*
X012783Y042177D01*
X012809Y042177D01*
X012835Y042173D01*
X012861Y042165D01*
X012885Y042153D01*
X012906Y042138D01*
X012926Y042120D01*
X012942Y042100D01*
X012955Y042077D01*
X012965Y042052D01*
X012971Y042026D01*
X012973Y042000D01*
X012971Y041974D01*
X012965Y041948D01*
X012955Y041923D01*
X012942Y041900D01*
X012926Y041880D01*
X012906Y041862D01*
X012884Y041847D01*
X012861Y041835D01*
X012835Y041827D01*
X012809Y041823D01*
X012783Y041823D01*
X012757Y041827D01*
X012731Y041835D01*
X012707Y041847D01*
X012686Y041862D01*
X012666Y041880D01*
X012650Y041900D01*
X012637Y041923D01*
X012627Y041948D01*
X012621Y041974D01*
X012619Y042000D01*
X010887Y042000D02*
X010889Y042026D01*
X010895Y042052D01*
X010905Y042077D01*
X010918Y042100D01*
X010934Y042120D01*
X010954Y042138D01*
X010976Y042153D01*
X010999Y042165D01*
X011025Y042173D01*
X011051Y042177D01*
X011077Y042177D01*
X011103Y042173D01*
X011129Y042165D01*
X011153Y042153D01*
X011174Y042138D01*
X011194Y042120D01*
X011210Y042100D01*
X011223Y042077D01*
X011233Y042052D01*
X011239Y042026D01*
X011241Y042000D01*
X011239Y041974D01*
X011233Y041948D01*
X011223Y041923D01*
X011210Y041900D01*
X011194Y041880D01*
X011174Y041862D01*
X011152Y041847D01*
X011129Y041835D01*
X011103Y041827D01*
X011077Y041823D01*
X011051Y041823D01*
X011025Y041827D01*
X010999Y041835D01*
X010975Y041847D01*
X010954Y041862D01*
X010934Y041880D01*
X010918Y041900D01*
X010905Y041923D01*
X010895Y041948D01*
X010889Y041974D01*
X010887Y042000D01*
X010926Y019839D02*
X010928Y019865D01*
X010934Y019891D01*
X010944Y019916D01*
X010957Y019939D01*
X010973Y019959D01*
X010993Y019977D01*
X011015Y019992D01*
X011038Y020004D01*
X011064Y020012D01*
X011090Y020016D01*
X011116Y020016D01*
X011142Y020012D01*
X011168Y020004D01*
X011192Y019992D01*
X011213Y019977D01*
X011233Y019959D01*
X011249Y019939D01*
X011262Y019916D01*
X011272Y019891D01*
X011278Y019865D01*
X011280Y019839D01*
X011278Y019813D01*
X011272Y019787D01*
X011262Y019762D01*
X011249Y019739D01*
X011233Y019719D01*
X011213Y019701D01*
X011191Y019686D01*
X011168Y019674D01*
X011142Y019666D01*
X011116Y019662D01*
X011090Y019662D01*
X011064Y019666D01*
X011038Y019674D01*
X011014Y019686D01*
X010993Y019701D01*
X010973Y019719D01*
X010957Y019739D01*
X010944Y019762D01*
X010934Y019787D01*
X010928Y019813D01*
X010926Y019839D01*
X012659Y019839D02*
X012661Y019865D01*
X012667Y019891D01*
X012677Y019916D01*
X012690Y019939D01*
X012706Y019959D01*
X012726Y019977D01*
X012748Y019992D01*
X012771Y020004D01*
X012797Y020012D01*
X012823Y020016D01*
X012849Y020016D01*
X012875Y020012D01*
X012901Y020004D01*
X012925Y019992D01*
X012946Y019977D01*
X012966Y019959D01*
X012982Y019939D01*
X012995Y019916D01*
X013005Y019891D01*
X013011Y019865D01*
X013013Y019839D01*
X013011Y019813D01*
X013005Y019787D01*
X012995Y019762D01*
X012982Y019739D01*
X012966Y019719D01*
X012946Y019701D01*
X012924Y019686D01*
X012901Y019674D01*
X012875Y019666D01*
X012849Y019662D01*
X012823Y019662D01*
X012797Y019666D01*
X012771Y019674D01*
X012747Y019686D01*
X012726Y019701D01*
X012706Y019719D01*
X012690Y019739D01*
X012677Y019762D01*
X012667Y019787D01*
X012661Y019813D01*
X012659Y019839D01*
X020170Y019770D02*
X020172Y019796D01*
X020178Y019822D01*
X020188Y019847D01*
X020201Y019870D01*
X020217Y019890D01*
X020237Y019908D01*
X020259Y019923D01*
X020282Y019935D01*
X020308Y019943D01*
X020334Y019947D01*
X020360Y019947D01*
X020386Y019943D01*
X020412Y019935D01*
X020436Y019923D01*
X020457Y019908D01*
X020477Y019890D01*
X020493Y019870D01*
X020506Y019847D01*
X020516Y019822D01*
X020522Y019796D01*
X020524Y019770D01*
X020522Y019744D01*
X020516Y019718D01*
X020506Y019693D01*
X020493Y019670D01*
X020477Y019650D01*
X020457Y019632D01*
X020435Y019617D01*
X020412Y019605D01*
X020386Y019597D01*
X020360Y019593D01*
X020334Y019593D01*
X020308Y019597D01*
X020282Y019605D01*
X020258Y019617D01*
X020237Y019632D01*
X020217Y019650D01*
X020201Y019670D01*
X020188Y019693D01*
X020178Y019718D01*
X020172Y019744D01*
X020170Y019770D01*
X022966Y019770D02*
X022968Y019796D01*
X022974Y019822D01*
X022984Y019847D01*
X022997Y019870D01*
X023013Y019890D01*
X023033Y019908D01*
X023055Y019923D01*
X023078Y019935D01*
X023104Y019943D01*
X023130Y019947D01*
X023156Y019947D01*
X023182Y019943D01*
X023208Y019935D01*
X023232Y019923D01*
X023253Y019908D01*
X023273Y019890D01*
X023289Y019870D01*
X023302Y019847D01*
X023312Y019822D01*
X023318Y019796D01*
X023320Y019770D01*
X023318Y019744D01*
X023312Y019718D01*
X023302Y019693D01*
X023289Y019670D01*
X023273Y019650D01*
X023253Y019632D01*
X023231Y019617D01*
X023208Y019605D01*
X023182Y019597D01*
X023156Y019593D01*
X023130Y019593D01*
X023104Y019597D01*
X023078Y019605D01*
X023054Y019617D01*
X023033Y019632D01*
X023013Y019650D01*
X022997Y019670D01*
X022984Y019693D01*
X022974Y019718D01*
X022968Y019744D01*
X022966Y019770D01*
X035290Y021750D02*
X035292Y021800D01*
X035298Y021850D01*
X035308Y021899D01*
X035321Y021948D01*
X035339Y021995D01*
X035360Y022041D01*
X035384Y022084D01*
X035412Y022126D01*
X035443Y022166D01*
X035477Y022203D01*
X035514Y022237D01*
X035554Y022268D01*
X035596Y022296D01*
X035639Y022320D01*
X035685Y022341D01*
X035732Y022359D01*
X035781Y022372D01*
X035830Y022382D01*
X035880Y022388D01*
X035930Y022390D01*
X035980Y022388D01*
X036030Y022382D01*
X036079Y022372D01*
X036128Y022359D01*
X036175Y022341D01*
X036221Y022320D01*
X036264Y022296D01*
X036306Y022268D01*
X036346Y022237D01*
X036383Y022203D01*
X036417Y022166D01*
X036448Y022126D01*
X036476Y022084D01*
X036500Y022041D01*
X036521Y021995D01*
X036539Y021948D01*
X036552Y021899D01*
X036562Y021850D01*
X036568Y021800D01*
X036570Y021750D01*
X036568Y021700D01*
X036562Y021650D01*
X036552Y021601D01*
X036539Y021552D01*
X036521Y021505D01*
X036500Y021459D01*
X036476Y021416D01*
X036448Y021374D01*
X036417Y021334D01*
X036383Y021297D01*
X036346Y021263D01*
X036306Y021232D01*
X036264Y021204D01*
X036221Y021180D01*
X036175Y021159D01*
X036128Y021141D01*
X036079Y021128D01*
X036030Y021118D01*
X035980Y021112D01*
X035930Y021110D01*
X035880Y021112D01*
X035830Y021118D01*
X035781Y021128D01*
X035732Y021141D01*
X035685Y021159D01*
X035639Y021180D01*
X035596Y021204D01*
X035554Y021232D01*
X035514Y021263D01*
X035477Y021297D01*
X035443Y021334D01*
X035412Y021374D01*
X035384Y021416D01*
X035360Y021459D01*
X035339Y021505D01*
X035321Y021552D01*
X035308Y021601D01*
X035298Y021650D01*
X035292Y021700D01*
X035290Y021750D01*
X039790Y021750D02*
X039792Y021800D01*
X039798Y021850D01*
X039808Y021899D01*
X039821Y021948D01*
X039839Y021995D01*
X039860Y022041D01*
X039884Y022084D01*
X039912Y022126D01*
X039943Y022166D01*
X039977Y022203D01*
X040014Y022237D01*
X040054Y022268D01*
X040096Y022296D01*
X040139Y022320D01*
X040185Y022341D01*
X040232Y022359D01*
X040281Y022372D01*
X040330Y022382D01*
X040380Y022388D01*
X040430Y022390D01*
X040480Y022388D01*
X040530Y022382D01*
X040579Y022372D01*
X040628Y022359D01*
X040675Y022341D01*
X040721Y022320D01*
X040764Y022296D01*
X040806Y022268D01*
X040846Y022237D01*
X040883Y022203D01*
X040917Y022166D01*
X040948Y022126D01*
X040976Y022084D01*
X041000Y022041D01*
X041021Y021995D01*
X041039Y021948D01*
X041052Y021899D01*
X041062Y021850D01*
X041068Y021800D01*
X041070Y021750D01*
X041068Y021700D01*
X041062Y021650D01*
X041052Y021601D01*
X041039Y021552D01*
X041021Y021505D01*
X041000Y021459D01*
X040976Y021416D01*
X040948Y021374D01*
X040917Y021334D01*
X040883Y021297D01*
X040846Y021263D01*
X040806Y021232D01*
X040764Y021204D01*
X040721Y021180D01*
X040675Y021159D01*
X040628Y021141D01*
X040579Y021128D01*
X040530Y021118D01*
X040480Y021112D01*
X040430Y021110D01*
X040380Y021112D01*
X040330Y021118D01*
X040281Y021128D01*
X040232Y021141D01*
X040185Y021159D01*
X040139Y021180D01*
X040096Y021204D01*
X040054Y021232D01*
X040014Y021263D01*
X039977Y021297D01*
X039943Y021334D01*
X039912Y021374D01*
X039884Y021416D01*
X039860Y021459D01*
X039839Y021505D01*
X039821Y021552D01*
X039808Y021601D01*
X039798Y021650D01*
X039792Y021700D01*
X039790Y021750D01*
X039790Y040250D02*
X039792Y040300D01*
X039798Y040350D01*
X039808Y040399D01*
X039821Y040448D01*
X039839Y040495D01*
X039860Y040541D01*
X039884Y040584D01*
X039912Y040626D01*
X039943Y040666D01*
X039977Y040703D01*
X040014Y040737D01*
X040054Y040768D01*
X040096Y040796D01*
X040139Y040820D01*
X040185Y040841D01*
X040232Y040859D01*
X040281Y040872D01*
X040330Y040882D01*
X040380Y040888D01*
X040430Y040890D01*
X040480Y040888D01*
X040530Y040882D01*
X040579Y040872D01*
X040628Y040859D01*
X040675Y040841D01*
X040721Y040820D01*
X040764Y040796D01*
X040806Y040768D01*
X040846Y040737D01*
X040883Y040703D01*
X040917Y040666D01*
X040948Y040626D01*
X040976Y040584D01*
X041000Y040541D01*
X041021Y040495D01*
X041039Y040448D01*
X041052Y040399D01*
X041062Y040350D01*
X041068Y040300D01*
X041070Y040250D01*
X041068Y040200D01*
X041062Y040150D01*
X041052Y040101D01*
X041039Y040052D01*
X041021Y040005D01*
X041000Y039959D01*
X040976Y039916D01*
X040948Y039874D01*
X040917Y039834D01*
X040883Y039797D01*
X040846Y039763D01*
X040806Y039732D01*
X040764Y039704D01*
X040721Y039680D01*
X040675Y039659D01*
X040628Y039641D01*
X040579Y039628D01*
X040530Y039618D01*
X040480Y039612D01*
X040430Y039610D01*
X040380Y039612D01*
X040330Y039618D01*
X040281Y039628D01*
X040232Y039641D01*
X040185Y039659D01*
X040139Y039680D01*
X040096Y039704D01*
X040054Y039732D01*
X040014Y039763D01*
X039977Y039797D01*
X039943Y039834D01*
X039912Y039874D01*
X039884Y039916D01*
X039860Y039959D01*
X039839Y040005D01*
X039821Y040052D01*
X039808Y040101D01*
X039798Y040150D01*
X039792Y040200D01*
X039790Y040250D01*
X035290Y040250D02*
X035292Y040300D01*
X035298Y040350D01*
X035308Y040399D01*
X035321Y040448D01*
X035339Y040495D01*
X035360Y040541D01*
X035384Y040584D01*
X035412Y040626D01*
X035443Y040666D01*
X035477Y040703D01*
X035514Y040737D01*
X035554Y040768D01*
X035596Y040796D01*
X035639Y040820D01*
X035685Y040841D01*
X035732Y040859D01*
X035781Y040872D01*
X035830Y040882D01*
X035880Y040888D01*
X035930Y040890D01*
X035980Y040888D01*
X036030Y040882D01*
X036079Y040872D01*
X036128Y040859D01*
X036175Y040841D01*
X036221Y040820D01*
X036264Y040796D01*
X036306Y040768D01*
X036346Y040737D01*
X036383Y040703D01*
X036417Y040666D01*
X036448Y040626D01*
X036476Y040584D01*
X036500Y040541D01*
X036521Y040495D01*
X036539Y040448D01*
X036552Y040399D01*
X036562Y040350D01*
X036568Y040300D01*
X036570Y040250D01*
X036568Y040200D01*
X036562Y040150D01*
X036552Y040101D01*
X036539Y040052D01*
X036521Y040005D01*
X036500Y039959D01*
X036476Y039916D01*
X036448Y039874D01*
X036417Y039834D01*
X036383Y039797D01*
X036346Y039763D01*
X036306Y039732D01*
X036264Y039704D01*
X036221Y039680D01*
X036175Y039659D01*
X036128Y039641D01*
X036079Y039628D01*
X036030Y039618D01*
X035980Y039612D01*
X035930Y039610D01*
X035880Y039612D01*
X035830Y039618D01*
X035781Y039628D01*
X035732Y039641D01*
X035685Y039659D01*
X035639Y039680D01*
X035596Y039704D01*
X035554Y039732D01*
X035514Y039763D01*
X035477Y039797D01*
X035443Y039834D01*
X035412Y039874D01*
X035384Y039916D01*
X035360Y039959D01*
X035339Y040005D01*
X035321Y040052D01*
X035308Y040101D01*
X035298Y040150D01*
X035292Y040200D01*
X035290Y040250D01*
D12*
X016930Y040450D03*
X016930Y042250D03*
D13*
X017526Y037656D03*
X019219Y037656D03*
X018584Y035250D03*
X020276Y035250D03*
X017776Y030500D03*
X016084Y030500D03*
X028334Y038750D03*
X030026Y038750D03*
D14*
X023731Y036250D03*
X022629Y036250D03*
X013481Y023750D03*
X012379Y023750D03*
D15*
X025680Y037449D03*
X025680Y038551D03*
D16*
X024680Y038104D03*
X024680Y037396D03*
X020680Y037104D03*
X020680Y036396D03*
X018680Y034354D03*
X018680Y033646D03*
X016239Y037396D03*
X015680Y037396D03*
X015680Y038104D03*
X016239Y038104D03*
X009680Y036354D03*
X009680Y035646D03*
X008930Y035646D03*
X008930Y036354D03*
X008798Y038396D03*
X008798Y039104D03*
X018430Y026354D03*
X018430Y025646D03*
X020180Y025104D03*
X020180Y024396D03*
X022930Y029917D03*
X022930Y030626D03*
X032475Y038002D03*
X032475Y038711D03*
X037180Y034354D03*
X037180Y033646D03*
D17*
X035284Y035500D03*
X034576Y035500D03*
X031784Y037750D03*
X031076Y037750D03*
X030826Y040750D03*
X031534Y040750D03*
X026534Y036250D03*
X025826Y036250D03*
X022284Y038500D03*
X021576Y038500D03*
X017784Y035500D03*
X017076Y035500D03*
X015284Y036250D03*
X014576Y036250D03*
X011284Y035250D03*
X010576Y035250D03*
X017076Y032750D03*
X017784Y032750D03*
X022076Y027750D03*
X022784Y027750D03*
X022784Y027000D03*
X022076Y027000D03*
D18*
X022680Y023801D03*
X022680Y022699D03*
X020680Y039199D03*
X020680Y040301D03*
X033430Y040801D03*
X033430Y039699D03*
D19*
X012560Y041016D03*
X012245Y041016D03*
X011930Y041016D03*
X011615Y041016D03*
X011300Y041016D03*
X011339Y020823D03*
X011654Y020823D03*
X011969Y020823D03*
X012284Y020823D03*
X012599Y020823D03*
D20*
X010198Y018657D03*
X010198Y020823D03*
X013741Y020823D03*
X013741Y018657D03*
X013702Y041016D03*
X013702Y043181D03*
X010158Y043181D03*
X010158Y041016D03*
D21*
X011064Y042000D03*
X012796Y042000D03*
X020282Y042250D03*
X023078Y042250D03*
X023143Y019770D03*
X020347Y019770D03*
X012836Y019839D03*
X011103Y019839D03*
D22*
X004430Y023915D03*
X004430Y024585D03*
X004180Y025915D03*
X004180Y026585D03*
X005180Y026835D03*
X005180Y026165D03*
X013430Y028415D03*
X013430Y029085D03*
X015680Y027585D03*
X015680Y026915D03*
X017930Y028665D03*
X017930Y029335D03*
X021107Y029935D03*
X021107Y030604D03*
X022034Y030614D03*
X022034Y029945D03*
X023680Y037415D03*
X023680Y038085D03*
X020680Y038335D03*
X020680Y037665D03*
X007680Y042165D03*
X007680Y042835D03*
D23*
X008379Y043000D03*
X009481Y043000D03*
X015721Y026250D03*
X016824Y026250D03*
D24*
X032536Y020000D03*
X033324Y020000D03*
X033324Y042000D03*
X032536Y042000D03*
D25*
X033430Y039096D03*
X033430Y037404D03*
X026930Y037154D03*
X026930Y038846D03*
X019180Y033096D03*
X019180Y031404D03*
X021430Y023846D03*
X021430Y022154D03*
D26*
X016560Y028508D03*
X016560Y029000D03*
X016560Y029492D03*
X015300Y029492D03*
X015300Y029000D03*
X015300Y028508D03*
D27*
X014516Y022220D03*
X019686Y022220D03*
D28*
X018479Y023879D03*
X017495Y023879D03*
X016708Y023879D03*
X015723Y023879D03*
D29*
X014515Y024750D03*
X013845Y024750D03*
X012942Y021945D03*
X012273Y021945D03*
X013845Y027500D03*
X014515Y027500D03*
X005515Y023250D03*
X004845Y023250D03*
D30*
X020761Y020852D03*
X021745Y020852D03*
X022729Y020852D03*
X022664Y041167D03*
X021680Y041167D03*
X020696Y041167D03*
D31*
X007680Y035660D03*
X007680Y034580D03*
X006680Y034040D03*
X006680Y035120D03*
X007680Y033500D03*
X007680Y032420D03*
X007680Y031340D03*
X006680Y031880D03*
X006680Y032960D03*
D32*
X007180Y028570D03*
X007180Y038430D03*
D33*
X013680Y034256D03*
X013680Y033744D03*
X013430Y033006D03*
X013430Y032494D03*
X011430Y031506D03*
X011430Y030994D03*
D34*
X012174Y031500D03*
X012686Y031500D03*
X010686Y031500D03*
X010174Y031500D03*
X009186Y031250D03*
X008674Y031250D03*
X008674Y030500D03*
X009186Y030500D03*
D35*
X021339Y037126D03*
X021339Y037874D03*
X022521Y037874D03*
X022521Y037500D03*
X022521Y037126D03*
D36*
X012552Y034415D03*
X012552Y034159D03*
X012552Y033904D03*
X012552Y033648D03*
X012552Y033392D03*
X012552Y033136D03*
X012552Y032880D03*
X012552Y032624D03*
X010229Y032624D03*
X010229Y032880D03*
X010229Y033136D03*
X010229Y033392D03*
X010229Y033648D03*
X010229Y033904D03*
X010229Y034159D03*
X010229Y034415D03*
X020353Y026413D03*
X020353Y026138D03*
X020353Y025862D03*
X020353Y025587D03*
X022007Y025587D03*
X022007Y025862D03*
X022007Y026138D03*
X022007Y026413D03*
D37*
X021180Y026000D03*
D38*
X021180Y026000D03*
X021357Y025764D03*
X021003Y025764D03*
X021003Y026236D03*
X021357Y026236D03*
D39*
X019430Y025841D03*
X019430Y024659D03*
D40*
X020816Y026994D03*
X020816Y027506D03*
X021544Y027250D03*
D41*
X017922Y033370D03*
X017430Y033370D03*
X016938Y033370D03*
X016938Y034630D03*
X017430Y034630D03*
X017922Y034630D03*
D42*
X024467Y032240D03*
X025255Y033421D03*
X026042Y032240D03*
X026830Y033421D03*
X027617Y032240D03*
X028404Y033421D03*
X029192Y032240D03*
X029979Y033421D03*
X030767Y032240D03*
X031554Y033421D03*
X031554Y024760D03*
X030767Y023579D03*
X029979Y024760D03*
X029192Y023579D03*
X028404Y024760D03*
X027617Y023579D03*
X026830Y024760D03*
X026042Y023579D03*
X025255Y024760D03*
X024467Y023579D03*
D43*
X013369Y036337D03*
X013369Y036593D03*
X013369Y036848D03*
X013369Y037104D03*
X013369Y037360D03*
X013369Y037616D03*
X013369Y037872D03*
X013369Y038128D03*
X013369Y038384D03*
X013369Y038640D03*
X013369Y038896D03*
X013369Y039152D03*
X013369Y039407D03*
X013369Y039663D03*
X010491Y039663D03*
X010491Y039407D03*
X010491Y039152D03*
X010491Y038896D03*
X010491Y038640D03*
X010491Y038384D03*
X010491Y038128D03*
X010491Y037872D03*
X010491Y037616D03*
X010491Y037360D03*
X010491Y037104D03*
X010491Y036848D03*
X010491Y036593D03*
X010491Y036337D03*
D44*
X028662Y037565D03*
X030434Y037565D03*
X030434Y034435D03*
X028662Y034435D03*
D45*
X028930Y030870D02*
X028930Y030130D01*
X027930Y030130D02*
X027930Y030870D01*
X026930Y030870D02*
X026930Y030130D01*
X025930Y030130D02*
X025930Y030870D01*
X024930Y030870D02*
X024930Y030130D01*
X023930Y030130D02*
X023930Y030870D01*
X023930Y026870D02*
X023930Y026130D01*
X024930Y026130D02*
X024930Y026870D01*
X025930Y026870D02*
X025930Y026130D01*
X026930Y026130D02*
X026930Y026870D01*
X027930Y026870D02*
X027930Y026130D01*
X028930Y026130D02*
X028930Y026870D01*
X029930Y026870D02*
X029930Y026130D01*
X030930Y026130D02*
X030930Y026870D01*
X031930Y026870D02*
X031930Y026130D01*
X032930Y026130D02*
X032930Y026870D01*
X033930Y026870D02*
X033930Y026130D01*
X033930Y030130D02*
X033930Y030870D01*
X032930Y030870D02*
X032930Y030130D01*
X031930Y030130D02*
X031930Y030870D01*
X030930Y030870D02*
X030930Y030130D01*
X029930Y030130D02*
X029930Y030870D01*
X038180Y034380D02*
X038180Y035120D01*
X039180Y035120D02*
X039180Y034380D01*
X040180Y034380D02*
X040180Y035120D01*
X043180Y038355D02*
X043180Y039095D01*
X044180Y039095D02*
X044180Y038355D01*
X045180Y038355D02*
X045180Y039095D01*
X045155Y023545D02*
X045155Y022805D01*
X044155Y022805D02*
X044155Y023545D01*
X043155Y023545D02*
X043155Y022805D01*
D46*
X022930Y028705D03*
X022930Y029295D03*
X021930Y029295D03*
X021930Y028705D03*
X021180Y028705D03*
X021180Y029295D03*
X015680Y036205D03*
X015680Y036795D03*
X009680Y036955D03*
X009680Y037545D03*
X008930Y037545D03*
X008930Y036955D03*
D47*
X034150Y034750D03*
X034150Y034250D03*
X034150Y033750D03*
X034150Y033250D03*
X036210Y033250D03*
X036210Y033750D03*
X036210Y034250D03*
X036210Y034750D03*
D48*
X013271Y035250D03*
X012089Y035250D03*
D49*
X044070Y035969D02*
X044775Y035969D01*
X044775Y034000D02*
X044070Y034000D01*
X044070Y032031D02*
X044775Y032031D01*
X044775Y029969D02*
X044070Y029969D01*
X044070Y028000D02*
X044775Y028000D01*
X044775Y026031D02*
X044070Y026031D01*
D50*
X031692Y038626D03*
X031692Y039000D03*
X031692Y039374D03*
X030668Y039374D03*
X030668Y038626D03*
D51*
X034355Y043470D02*
X042005Y043470D01*
X042005Y018530D02*
X034355Y018530D01*
D52*
X036430Y024250D03*
X037430Y024250D03*
X038430Y024250D03*
X039430Y024250D03*
X038930Y025250D03*
X037930Y025250D03*
X036930Y025250D03*
X039930Y025250D03*
X039430Y036750D03*
X038430Y036750D03*
X037430Y036750D03*
X036430Y036750D03*
X036930Y037750D03*
X037930Y037750D03*
X038930Y037750D03*
X039930Y037750D03*
D53*
X041380Y036801D03*
X041380Y042348D03*
X034980Y042348D03*
X034980Y036801D03*
X034980Y025199D03*
X034980Y019652D03*
X041380Y019652D03*
X041380Y025199D03*
D54*
X040430Y021750D03*
X035930Y021750D03*
X035930Y040250D03*
X040430Y040250D03*
D55*
X010815Y026750D03*
X010815Y026250D03*
X010815Y025750D03*
X010815Y025250D03*
X010815Y024750D03*
X010815Y024250D03*
X010815Y023750D03*
X010815Y023250D03*
X010815Y022750D03*
X007045Y022750D03*
X007045Y023250D03*
X007045Y023750D03*
X007045Y024250D03*
X007045Y024750D03*
X007045Y025250D03*
X007045Y025750D03*
X007045Y026250D03*
X007045Y026750D03*
D56*
X003438Y025687D03*
X003438Y025313D03*
X003438Y024939D03*
X003438Y024565D03*
X003438Y024191D03*
X003438Y023817D03*
D57*
X012202Y025547D03*
X012202Y026453D03*
X013658Y026453D03*
X013658Y025547D03*
D58*
X012690Y028250D02*
X012170Y028250D01*
X012170Y029250D02*
X012690Y029250D01*
X009690Y029250D02*
X009170Y029250D01*
X009170Y028250D02*
X009690Y028250D01*
D59*
X009324Y031876D03*
X009324Y032624D03*
X008497Y032250D03*
D60*
X008830Y041320D03*
X024450Y041320D03*
X042580Y041320D03*
X042580Y020680D03*
X024450Y020680D03*
X008830Y020680D03*
M02*
